<svg aria-hidden="true" style="position: absolute; width: 0; height: 0; overflow: hidden;" version="1.1" xmlns="http://www.w3.org/2000/svg" xmlns:xlink="http://www.w3.org/1999/xlink">
<defs>
<symbol id="icon-cheveron-right" viewBox="0 0 20 20">
<path d="M12.95 10.707l0.707-0.707-5.657-5.657-1.414 1.414 4.242 4.243-4.242 4.243 1.414 1.414 4.95-4.95z"></path>
</symbol>
<symbol id="icon-education" viewBox="0 0 20 20">
<path d="M3.33 8l6.67 4 10-6-10-6-10 6h10v2h-6.67zM0 8v8l2-2.22v-4.58l-2-1.2zM10 20l-7-4.2v-6l7 4.2 7-4.2v6l-7 4.2z"></path>
</symbol>
<symbol id="icon-light-bulb" viewBox="0 0 20 20">
<path d="M7 13.33c-2.384-1.15-4-3.549-4-6.325 0-3.866 3.134-7 7-7s7 3.134 7 7c0 2.776-1.616 5.174-3.958 6.306l-0.042 0.018v2.67h-6v-2.67zM7 17h6v1.5c0 0.83-0.67 1.5-1.5 1.5h-3c-0.828 0-1.5-0.672-1.5-1.5v0-1.5zM9 11.9v2.1h2v-2.1c2.299-0.481 4-2.492 4-4.899 0-2.761-2.239-5-5-5s-5 2.239-5 5c0 2.407 1.701 4.417 3.967 4.893l0.033 0.006z"></path>
</symbol>
<symbol id="icon-play" viewBox="0 0 20 20">
<path d="M4 4l12 6-12 6z"></path>
</symbol>
<symbol id="icon-embed2" viewBox="0 0 40 32">
<path d="M26 23l3 3 10-10-10-10-3 3 7 7z"></path>
<path d="M14 9l-3-3-10 10 10 10 3-3-7-7z"></path>
<path d="M21.916 4.704l2.171 0.592-6 22.001-2.171-0.592 6-22.001z"></path>
</symbol>
<symbol id="icon-wrench" viewBox="0 0 20 20">
<path d="M6.47 9.8c-0.485 0.172-1.043 0.272-1.625 0.272-2.761 0-5-2.239-5-5 0-0.667 0.131-1.303 0.368-1.885l-0.012 0.033 3.95 3.95 2.82-2.83-3.94-3.93c0.542-0.219 1.171-0.347 1.829-0.347 2.761 0 5 2.239 5 5 0 0.734-0.158 1.43-0.442 2.058l0.013-0.031 10 10-2.83 2.83-10.13-10.12z"></path>
</symbol>
</defs>
</svg>
